<svg width="29" height="30" viewBox="0 0 29 30" fill="none" xmlns="http://www.w3.org/2000/svg">
<g clip-path="url(#clip0_321_4520)">
<path d="M29 15.0888C29 7.03042 22.5076 0.498169 14.5 0.498169C6.48871 0.499981 -0.00366211 7.03042 -0.00366211 15.0906C-0.00366211 22.3714 5.29971 28.407 12.2307 29.5018V19.3065H8.55134V15.0906H12.2343V11.8734C12.2343 8.21761 14.4003 6.19848 17.7117 6.19848C19.2995 6.19848 20.9579 6.48304 20.9579 6.48304V10.0718H19.1291C17.3293 10.0718 16.7674 11.1974 16.7674 12.3519V15.0888H20.7875L20.1459 19.3047H16.7656V29.5C23.6966 28.4052 29 22.3696 29 15.0888Z" fill="#04B4FC"/>
</g>
<defs>
<clipPath id="clip0_321_4520">
<rect width="29" height="29" fill="white" transform="translate(0 0.5)"/>
</clipPath>
</defs>
</svg>
