<svg width="19" height="20" viewBox="0 0 19 20" fill="none" xmlns="http://www.w3.org/2000/svg">
<path d="M5.96838 18.3125C13.1385 18.3125 17.0608 12.3715 17.0608 7.2284C17.0608 7.06215 17.0608 6.89353 17.0537 6.72728C17.8173 6.17448 18.4764 5.49008 19 4.70615C18.2867 5.02066 17.5308 5.22795 16.7568 5.32128C17.5721 4.83397 18.1827 4.06724 18.4751 3.16359C17.7092 3.61736 16.8708 3.93591 15.9968 4.10528C15.4092 3.4795 14.6317 3.06493 13.7846 2.9258C12.9375 2.78668 12.0682 2.93075 11.3113 3.33571C10.5544 3.74066 9.95221 4.3839 9.59791 5.16579C9.24361 5.94768 9.15702 6.82457 9.35156 7.66066C7.80157 7.58293 6.28522 7.18027 4.90086 6.47879C3.51651 5.7773 2.29506 4.79266 1.31575 3.58872C0.818591 4.44738 0.666869 5.46307 0.891392 6.42953C1.11592 7.396 1.69985 8.24078 2.52462 8.79234C1.90658 8.77134 1.30212 8.60538 0.76 8.30784V8.36128C0.761066 9.26079 1.07268 10.1323 1.64216 10.8286C2.21165 11.5249 3.00408 12.0032 3.8855 12.1827C3.55094 12.2748 3.20533 12.3208 2.85831 12.3192C2.61367 12.32 2.36951 12.2973 2.12919 12.2515C2.37831 13.0258 2.86339 13.7029 3.51648 14.1877C4.16957 14.6726 4.95797 14.941 5.77125 14.9555C4.38966 16.0406 2.68304 16.6291 0.92625 16.6263C0.616693 16.6276 0.307352 16.6097 0 16.5728C1.78305 17.7096 3.85379 18.3132 5.96838 18.3125Z" fill="white"/>
</svg>
